{
	"patcher" : 	{
		"fileversion" : 1,
		"appversion" : 		{
			"major" : 6,
			"minor" : 1,
			"revision" : 7,
			"architecture" : "x86"
		}
,
		"rect" : [ 254.0, 97.0, 640.0, 480.0 ],
		"bglocked" : 0,
		"openinpresentation" : 0,
		"default_fontsize" : 12.0,
		"default_fontface" : 0,
		"default_fontname" : "Arial",
		"gridonopen" : 0,
		"gridsize" : [ 15.0, 15.0 ],
		"gridsnaponopen" : 0,
		"statusbarvisible" : 2,
		"toolbarvisible" : 1,
		"boxanimatetime" : 200,
		"imprint" : 0,
		"enablehscroll" : 1,
		"enablevscroll" : 1,
		"devicewidth" : 0.0,
		"description" : "",
		"digest" : "",
		"tags" : "",
		"boxes" : [ 			{
				"box" : 				{
					"fontname" : "Arial",
					"fontsize" : 12.0,
					"id" : "obj-1",
					"maxclass" : "newobj",
					"numinlets" : 5,
					"numoutlets" : 4,
					"outlettype" : [ "", "", "", "" ],
					"patcher" : 					{
						"fileversion" : 1,
						"appversion" : 						{
							"major" : 6,
							"minor" : 1,
							"revision" : 7,
							"architecture" : "x86"
						}
,
						"rect" : [ 170.0, 83.0, 750.0, 541.0 ],
						"bglocked" : 0,
						"openinpresentation" : 0,
						"default_fontsize" : 12.0,
						"default_fontface" : 0,
						"default_fontname" : "Arial",
						"gridonopen" : 0,
						"gridsize" : [ 15.0, 15.0 ],
						"gridsnaponopen" : 0,
						"statusbarvisible" : 2,
						"toolbarvisible" : 1,
						"boxanimatetime" : 200,
						"imprint" : 0,
						"enablehscroll" : 1,
						"enablevscroll" : 1,
						"devicewidth" : 0.0,
						"description" : "",
						"digest" : "",
						"tags" : "",
						"boxes" : [ 							{
								"box" : 								{
									"comment" : "",
									"id" : "obj-36",
									"maxclass" : "inlet",
									"numinlets" : 0,
									"numoutlets" : 1,
									"outlettype" : [ "" ],
									"patching_rect" : [ 675.0, 78.5, 25.0, 25.0 ]
								}

							}
, 							{
								"box" : 								{
									"comment" : "",
									"id" : "obj-35",
									"maxclass" : "inlet",
									"numinlets" : 0,
									"numoutlets" : 1,
									"outlettype" : [ "" ],
									"patching_rect" : [ 537.0, 78.5, 25.0, 25.0 ]
								}

							}
, 							{
								"box" : 								{
									"comment" : "",
									"id" : "obj-34",
									"maxclass" : "inlet",
									"numinlets" : 0,
									"numoutlets" : 1,
									"outlettype" : [ "" ],
									"patching_rect" : [ 398.0, 78.5, 25.0, 25.0 ]
								}

							}
, 							{
								"box" : 								{
									"comment" : "",
									"id" : "obj-33",
									"maxclass" : "inlet",
									"numinlets" : 0,
									"numoutlets" : 1,
									"outlettype" : [ "" ],
									"patching_rect" : [ 260.0, 79.0, 25.0, 25.0 ]
								}

							}
, 							{
								"box" : 								{
									"fontname" : "Arial",
									"fontsize" : 12.0,
									"id" : "obj-32",
									"maxclass" : "newobj",
									"numinlets" : 0,
									"numoutlets" : 1,
									"outlettype" : [ "" ],
									"patcher" : 									{
										"fileversion" : 1,
										"appversion" : 										{
											"major" : 6,
											"minor" : 1,
											"revision" : 7,
											"architecture" : "x86"
										}
,
										"rect" : [ 223.0, 73.0, 818.0, 549.0 ],
										"bglocked" : 0,
										"openinpresentation" : 0,
										"default_fontsize" : 12.0,
										"default_fontface" : 0,
										"default_fontname" : "Arial",
										"gridonopen" : 0,
										"gridsize" : [ 15.0, 15.0 ],
										"gridsnaponopen" : 0,
										"statusbarvisible" : 2,
										"toolbarvisible" : 1,
										"boxanimatetime" : 200,
										"imprint" : 0,
										"enablehscroll" : 1,
										"enablevscroll" : 1,
										"devicewidth" : 0.0,
										"description" : "",
										"digest" : "",
										"tags" : "",
										"boxes" : [ 											{
												"box" : 												{
													"id" : "obj-14",
													"maxclass" : "button",
													"numinlets" : 1,
													"numoutlets" : 1,
													"outlettype" : [ "bang" ],
													"patching_rect" : [ 95.25, 464.0, 20.0, 20.0 ]
												}

											}
, 											{
												"box" : 												{
													"comment" : "",
													"id" : "obj-7",
													"maxclass" : "outlet",
													"numinlets" : 1,
													"numoutlets" : 0,
													"patching_rect" : [ 355.0, 483.0, 25.0, 25.0 ]
												}

											}
, 											{
												"box" : 												{
													"fontname" : "Arial",
													"fontsize" : 12.0,
													"id" : "obj-5",
													"maxclass" : "newobj",
													"numinlets" : 1,
													"numoutlets" : 1,
													"outlettype" : [ "" ],
													"patching_rect" : [ 377.0, 309.0, 182.0, 20.0 ],
													"text" : "loadmess 0 0 1 1 1 1 2 2 1 3 3 1"
												}

											}
, 											{
												"box" : 												{
													"fontname" : "Arial",
													"fontsize" : 12.0,
													"frgb" : 0.0,
													"id" : "obj-27",
													"linecount" : 11,
													"maxclass" : "comment",
													"numinlets" : 1,
													"numoutlets" : 0,
													"patching_rect" : [ 666.0, 175.0, 150.0, 154.0 ],
													"text" : "the intelligent routing assigns the lowest number (in terms of the number of notes) to the lowest \"active\" note (as indicated by the toggle boxes). for a full explanation see the python script used to generate the data for the coll table"
												}

											}
, 											{
												"box" : 												{
													"fontname" : "Arial",
													"fontsize" : 12.0,
													"id" : "obj-12",
													"maxclass" : "newobj",
													"numinlets" : 0,
													"numoutlets" : 1,
													"outlettype" : [ "" ],
													"patching_rect" : [ 95.25, 418.0, 85.0, 20.0 ],
													"text" : "r toggleSpace"
												}

											}
, 											{
												"box" : 												{
													"id" : "obj-10",
													"maxclass" : "gswitch",
													"numinlets" : 3,
													"numoutlets" : 1,
													"outlettype" : [ "" ],
													"parameter_enable" : 0,
													"patching_rect" : [ 355.0, 436.0, 41.0, 32.0 ]
												}

											}
, 											{
												"box" : 												{
													"columns" : 5,
													"id" : "obj-9",
													"maxclass" : "matrixctrl",
													"numinlets" : 1,
													"numoutlets" : 2,
													"one/row" : 1,
													"outlettype" : [ "list", "list" ],
													"parameter_enable" : 0,
													"patching_rect" : [ 377.0, 339.0, 119.0, 59.0 ]
												}

											}
, 											{
												"box" : 												{
													"fontname" : "Arial",
													"fontsize" : 12.0,
													"id" : "obj-69",
													"maxclass" : "message",
													"numinlets" : 2,
													"numoutlets" : 1,
													"outlettype" : [ "" ],
													"patching_rect" : [ 432.0, 84.0, 224.0, 18.0 ],
													"text" : "\"Warning: Unrecognized router key: \" $1"
												}

											}
, 											{
												"box" : 												{
													"fontname" : "Arial",
													"fontsize" : 12.0,
													"id" : "obj-64",
													"maxclass" : "newobj",
													"numinlets" : 1,
													"numoutlets" : 0,
													"patching_rect" : [ 432.0, 112.0, 111.0, 20.0 ],
													"text" : "print routingEngine"
												}

											}
, 											{
												"box" : 												{
													"fontname" : "Arial",
													"fontsize" : 12.0,
													"id" : "obj-35",
													"maxclass" : "newobj",
													"numinlets" : 5,
													"numoutlets" : 5,
													"outlettype" : [ "", "", "", "", "" ],
													"patching_rect" : [ 280.0, 54.0, 171.0, 20.0 ],
													"text" : "route note1 note2 note3 note4"
												}

											}
, 											{
												"box" : 												{
													"fontname" : "Arial",
													"fontsize" : 12.0,
													"id" : "obj-33",
													"maxclass" : "newobj",
													"numinlets" : 1,
													"numoutlets" : 1,
													"outlettype" : [ "" ],
													"patching_rect" : [ 195.5, 272.0, 175.0, 20.0 ],
													"text" : "loadmess read RoutingData.txt"
												}

											}
, 											{
												"box" : 												{
													"fontname" : "Arial",
													"fontsize" : 12.0,
													"id" : "obj-51",
													"maxclass" : "newobj",
													"numinlets" : 1,
													"numoutlets" : 0,
													"patching_rect" : [ 394.0, 279.0, 83.0, 20.0 ],
													"text" : "s activeNotes"
												}

											}
, 											{
												"box" : 												{
													"fontname" : "Arial",
													"fontsize" : 12.0,
													"frgb" : 0.0,
													"id" : "obj-47",
													"maxclass" : "comment",
													"numinlets" : 1,
													"numoutlets" : 0,
													"patching_rect" : [ 445.0, 242.0, 150.0, 20.0 ],
													"text" : "number of \"active\" notes"
												}

											}
, 											{
												"box" : 												{
													"fontname" : "Arial",
													"fontsize" : 12.0,
													"frgb" : 0.0,
													"id" : "obj-43",
													"linecount" : 2,
													"maxclass" : "comment",
													"numinlets" : 1,
													"numoutlets" : 0,
													"patching_rect" : [ 195.5, 238.0, 156.0, 33.0 ],
													"text" : "\"bit pattern\" corresponding\nto a \"routing key\""
												}

											}
, 											{
												"box" : 												{
													"fontname" : "Arial",
													"fontsize" : 12.0,
													"id" : "obj-31",
													"maxclass" : "newobj",
													"numinlets" : 0,
													"numoutlets" : 1,
													"outlettype" : [ "" ],
													"patching_rect" : [ 280.0, 22.0, 109.0, 20.0 ],
													"text" : "r thresholdRouting"
												}

											}
, 											{
												"box" : 												{
													"fontname" : "Arial",
													"fontsize" : 12.0,
													"id" : "obj-17",
													"maxclass" : "number",
													"numinlets" : 1,
													"numoutlets" : 2,
													"outlettype" : [ "int", "bang" ],
													"parameter_enable" : 0,
													"patching_rect" : [ 146.0, 244.0, 50.0, 20.0 ]
												}

											}
, 											{
												"box" : 												{
													"fontname" : "Arial",
													"fontsize" : 12.0,
													"id" : "obj-11",
													"maxclass" : "newobj",
													"numinlets" : 1,
													"numoutlets" : 4,
													"outlettype" : [ "", "", "", "" ],
													"patching_rect" : [ 146.0, 299.0, 59.5, 20.0 ],
													"saved_object_attributes" : 													{
														"embed" : 0
													}
,
													"text" : "coll"
												}

											}
, 											{
												"box" : 												{
													"columns" : 5,
													"id" : "obj-18",
													"maxclass" : "matrixctrl",
													"numinlets" : 1,
													"numoutlets" : 2,
													"one/row" : 1,
													"outlettype" : [ "list", "list" ],
													"parameter_enable" : 0,
													"patching_rect" : [ 146.0, 331.0, 119.0, 59.0 ]
												}

											}
, 											{
												"box" : 												{
													"fontname" : "Arial",
													"fontsize" : 12.0,
													"id" : "obj-19",
													"maxclass" : "number",
													"numinlets" : 1,
													"numoutlets" : 2,
													"outlettype" : [ "int", "bang" ],
													"parameter_enable" : 0,
													"patching_rect" : [ 394.0, 242.0, 50.0, 20.0 ]
												}

											}
, 											{
												"box" : 												{
													"fontname" : "Arial",
													"fontsize" : 12.0,
													"id" : "obj-44",
													"maxclass" : "newobj",
													"numinlets" : 5,
													"numoutlets" : 1,
													"outlettype" : [ "" ],
													"patching_rect" : [ 394.0, 212.0, 183.0, 20.0 ],
													"text" : "expr $i1*0 + $i2 + $i3 + $i4 + $i5"
												}

											}
, 											{
												"box" : 												{
													"fontname" : "Arial",
													"fontsize" : 12.0,
													"id" : "obj-40",
													"maxclass" : "number",
													"numinlets" : 1,
													"numoutlets" : 2,
													"outlettype" : [ "int", "bang" ],
													"parameter_enable" : 0,
													"patching_rect" : [ 356.0, 161.0, 50.0, 20.0 ]
												}

											}
, 											{
												"box" : 												{
													"fontname" : "Arial",
													"fontsize" : 12.0,
													"id" : "obj-39",
													"maxclass" : "number",
													"numinlets" : 1,
													"numoutlets" : 2,
													"outlettype" : [ "int", "bang" ],
													"parameter_enable" : 0,
													"patching_rect" : [ 303.666687, 161.0, 50.0, 20.0 ]
												}

											}
, 											{
												"box" : 												{
													"fontname" : "Arial",
													"fontsize" : 12.0,
													"id" : "obj-38",
													"maxclass" : "number",
													"numinlets" : 1,
													"numoutlets" : 2,
													"outlettype" : [ "int", "bang" ],
													"parameter_enable" : 0,
													"patching_rect" : [ 251.333344, 161.0, 50.0, 20.0 ]
												}

											}
, 											{
												"box" : 												{
													"fontname" : "Arial",
													"fontsize" : 12.0,
													"id" : "obj-37",
													"maxclass" : "number",
													"numinlets" : 1,
													"numoutlets" : 2,
													"outlettype" : [ "int", "bang" ],
													"parameter_enable" : 0,
													"patching_rect" : [ 198.0, 161.0, 50.0, 20.0 ]
												}

											}
, 											{
												"box" : 												{
													"fontname" : "Arial",
													"fontsize" : 12.0,
													"id" : "obj-36",
													"maxclass" : "newobj",
													"numinlets" : 5,
													"numoutlets" : 1,
													"outlettype" : [ "" ],
													"patching_rect" : [ 146.0, 212.0, 229.0, 20.0 ],
													"text" : "expr $i1*0 + $i2*8 + $i3*4 + $i4*2 + $i5*1"
												}

											}
, 											{
												"box" : 												{
													"fontname" : "Arial",
													"fontsize" : 12.0,
													"frgb" : 0.0,
													"id" : "obj-30",
													"maxclass" : "comment",
													"numinlets" : 1,
													"numoutlets" : 0,
													"patching_rect" : [ 335.666687, 134.0, 20.0, 20.0 ],
													"text" : "4"
												}

											}
, 											{
												"box" : 												{
													"fontname" : "Arial",
													"fontsize" : 12.0,
													"frgb" : 0.0,
													"id" : "obj-29",
													"maxclass" : "comment",
													"numinlets" : 1,
													"numoutlets" : 0,
													"patching_rect" : [ 283.666687, 134.0, 20.0, 20.0 ],
													"text" : "3"
												}

											}
, 											{
												"box" : 												{
													"fontname" : "Arial",
													"fontsize" : 12.0,
													"frgb" : 0.0,
													"id" : "obj-28",
													"maxclass" : "comment",
													"numinlets" : 1,
													"numoutlets" : 0,
													"patching_rect" : [ 231.0, 134.0, 20.0, 20.0 ],
													"text" : "2"
												}

											}
, 											{
												"box" : 												{
													"fontname" : "Arial",
													"fontsize" : 12.0,
													"frgb" : 0.0,
													"id" : "obj-20",
													"maxclass" : "comment",
													"numinlets" : 1,
													"numoutlets" : 0,
													"patching_rect" : [ 178.0, 134.0, 20.0, 20.0 ],
													"text" : "1"
												}

											}
, 											{
												"box" : 												{
													"id" : "obj-21",
													"maxclass" : "toggle",
													"numinlets" : 1,
													"numoutlets" : 1,
													"outlettype" : [ "int" ],
													"parameter_enable" : 0,
													"patching_rect" : [ 251.333313, 134.0, 20.0, 20.0 ]
												}

											}
, 											{
												"box" : 												{
													"id" : "obj-23",
													"maxclass" : "toggle",
													"numinlets" : 1,
													"numoutlets" : 1,
													"outlettype" : [ "int" ],
													"parameter_enable" : 0,
													"patching_rect" : [ 303.666687, 134.0, 20.0, 20.0 ]
												}

											}
, 											{
												"box" : 												{
													"id" : "obj-24",
													"maxclass" : "toggle",
													"numinlets" : 1,
													"numoutlets" : 1,
													"outlettype" : [ "int" ],
													"parameter_enable" : 0,
													"patching_rect" : [ 356.0, 134.0, 20.0, 20.0 ]
												}

											}
, 											{
												"box" : 												{
													"id" : "obj-25",
													"maxclass" : "toggle",
													"numinlets" : 1,
													"numoutlets" : 1,
													"outlettype" : [ "int" ],
													"parameter_enable" : 0,
													"patching_rect" : [ 198.0, 134.0, 20.0, 20.0 ]
												}

											}
 ],
										"lines" : [ 											{
												"patchline" : 												{
													"destination" : [ "obj-7", 0 ],
													"disabled" : 0,
													"hidden" : 0,
													"source" : [ "obj-10", 0 ]
												}

											}
, 											{
												"patchline" : 												{
													"destination" : [ "obj-18", 0 ],
													"disabled" : 0,
													"hidden" : 0,
													"source" : [ "obj-11", 0 ]
												}

											}
, 											{
												"patchline" : 												{
													"destination" : [ "obj-10", 0 ],
													"disabled" : 0,
													"hidden" : 0,
													"source" : [ "obj-12", 0 ]
												}

											}
, 											{
												"patchline" : 												{
													"destination" : [ "obj-14", 0 ],
													"disabled" : 0,
													"hidden" : 0,
													"source" : [ "obj-12", 0 ]
												}

											}
, 											{
												"patchline" : 												{
													"destination" : [ "obj-18", 0 ],
													"disabled" : 0,
													"hidden" : 0,
													"source" : [ "obj-14", 0 ]
												}

											}
, 											{
												"patchline" : 												{
													"destination" : [ "obj-9", 0 ],
													"disabled" : 0,
													"hidden" : 0,
													"source" : [ "obj-14", 0 ]
												}

											}
, 											{
												"patchline" : 												{
													"destination" : [ "obj-11", 0 ],
													"disabled" : 0,
													"hidden" : 0,
													"source" : [ "obj-17", 0 ]
												}

											}
, 											{
												"patchline" : 												{
													"destination" : [ "obj-10", 1 ],
													"disabled" : 0,
													"hidden" : 0,
													"source" : [ "obj-18", 0 ]
												}

											}
, 											{
												"patchline" : 												{
													"destination" : [ "obj-51", 0 ],
													"disabled" : 0,
													"hidden" : 0,
													"source" : [ "obj-19", 0 ]
												}

											}
, 											{
												"patchline" : 												{
													"destination" : [ "obj-36", 0 ],
													"disabled" : 0,
													"hidden" : 0,
													"midpoints" : [ 260.833313, 156.0, 183.0, 156.0, 183.0, 189.0, 155.5, 189.0 ],
													"source" : [ "obj-21", 0 ]
												}

											}
, 											{
												"patchline" : 												{
													"destination" : [ "obj-38", 0 ],
													"disabled" : 0,
													"hidden" : 0,
													"source" : [ "obj-21", 0 ]
												}

											}
, 											{
												"patchline" : 												{
													"destination" : [ "obj-36", 0 ],
													"disabled" : 0,
													"hidden" : 0,
													"midpoints" : [ 313.166687, 156.0, 183.0, 156.0, 183.0, 189.0, 155.5, 189.0 ],
													"source" : [ "obj-23", 0 ]
												}

											}
, 											{
												"patchline" : 												{
													"destination" : [ "obj-39", 0 ],
													"disabled" : 0,
													"hidden" : 0,
													"source" : [ "obj-23", 0 ]
												}

											}
, 											{
												"patchline" : 												{
													"destination" : [ "obj-36", 0 ],
													"disabled" : 0,
													"hidden" : 0,
													"midpoints" : [ 365.5, 156.0, 183.0, 156.0, 183.0, 189.0, 155.5, 189.0 ],
													"source" : [ "obj-24", 0 ]
												}

											}
, 											{
												"patchline" : 												{
													"destination" : [ "obj-40", 0 ],
													"disabled" : 0,
													"hidden" : 0,
													"source" : [ "obj-24", 0 ]
												}

											}
, 											{
												"patchline" : 												{
													"destination" : [ "obj-36", 0 ],
													"disabled" : 0,
													"hidden" : 0,
													"midpoints" : [ 207.5, 156.0, 183.0, 156.0, 183.0, 189.0, 155.5, 189.0 ],
													"source" : [ "obj-25", 0 ]
												}

											}
, 											{
												"patchline" : 												{
													"destination" : [ "obj-37", 0 ],
													"disabled" : 0,
													"hidden" : 0,
													"source" : [ "obj-25", 0 ]
												}

											}
, 											{
												"patchline" : 												{
													"destination" : [ "obj-35", 0 ],
													"disabled" : 0,
													"hidden" : 0,
													"source" : [ "obj-31", 0 ]
												}

											}
, 											{
												"patchline" : 												{
													"destination" : [ "obj-11", 0 ],
													"disabled" : 0,
													"hidden" : 0,
													"source" : [ "obj-33", 0 ]
												}

											}
, 											{
												"patchline" : 												{
													"destination" : [ "obj-21", 0 ],
													"disabled" : 0,
													"hidden" : 0,
													"source" : [ "obj-35", 1 ]
												}

											}
, 											{
												"patchline" : 												{
													"destination" : [ "obj-23", 0 ],
													"disabled" : 0,
													"hidden" : 0,
													"source" : [ "obj-35", 2 ]
												}

											}
, 											{
												"patchline" : 												{
													"destination" : [ "obj-24", 0 ],
													"disabled" : 0,
													"hidden" : 0,
													"source" : [ "obj-35", 3 ]
												}

											}
, 											{
												"patchline" : 												{
													"destination" : [ "obj-25", 0 ],
													"disabled" : 0,
													"hidden" : 0,
													"source" : [ "obj-35", 0 ]
												}

											}
, 											{
												"patchline" : 												{
													"destination" : [ "obj-69", 0 ],
													"disabled" : 0,
													"hidden" : 0,
													"source" : [ "obj-35", 4 ]
												}

											}
, 											{
												"patchline" : 												{
													"destination" : [ "obj-17", 0 ],
													"disabled" : 0,
													"hidden" : 0,
													"source" : [ "obj-36", 0 ]
												}

											}
, 											{
												"patchline" : 												{
													"destination" : [ "obj-36", 1 ],
													"disabled" : 0,
													"hidden" : 0,
													"source" : [ "obj-37", 0 ]
												}

											}
, 											{
												"patchline" : 												{
													"destination" : [ "obj-44", 1 ],
													"disabled" : 0,
													"hidden" : 0,
													"midpoints" : [ 207.5, 186.0, 444.5, 186.0 ],
													"source" : [ "obj-37", 0 ]
												}

											}
, 											{
												"patchline" : 												{
													"destination" : [ "obj-44", 0 ],
													"disabled" : 0,
													"hidden" : 0,
													"midpoints" : [ 207.5, 201.0, 403.5, 201.0 ],
													"source" : [ "obj-37", 0 ]
												}

											}
, 											{
												"patchline" : 												{
													"destination" : [ "obj-36", 2 ],
													"disabled" : 0,
													"hidden" : 0,
													"source" : [ "obj-38", 0 ]
												}

											}
, 											{
												"patchline" : 												{
													"destination" : [ "obj-44", 2 ],
													"disabled" : 0,
													"hidden" : 0,
													"midpoints" : [ 260.833344, 186.0, 485.5, 186.0 ],
													"source" : [ "obj-38", 0 ]
												}

											}
, 											{
												"patchline" : 												{
													"destination" : [ "obj-44", 0 ],
													"disabled" : 0,
													"hidden" : 0,
													"midpoints" : [ 260.833344, 198.0, 403.5, 198.0 ],
													"source" : [ "obj-38", 0 ]
												}

											}
, 											{
												"patchline" : 												{
													"destination" : [ "obj-36", 3 ],
													"disabled" : 0,
													"hidden" : 0,
													"source" : [ "obj-39", 0 ]
												}

											}
, 											{
												"patchline" : 												{
													"destination" : [ "obj-44", 3 ],
													"disabled" : 0,
													"hidden" : 0,
													"midpoints" : [ 313.166687, 186.0, 526.5, 186.0 ],
													"source" : [ "obj-39", 0 ]
												}

											}
, 											{
												"patchline" : 												{
													"destination" : [ "obj-44", 0 ],
													"disabled" : 0,
													"hidden" : 0,
													"midpoints" : [ 313.166687, 198.0, 403.5, 198.0 ],
													"source" : [ "obj-39", 0 ]
												}

											}
, 											{
												"patchline" : 												{
													"destination" : [ "obj-36", 4 ],
													"disabled" : 0,
													"hidden" : 0,
													"source" : [ "obj-40", 0 ]
												}

											}
, 											{
												"patchline" : 												{
													"destination" : [ "obj-44", 4 ],
													"disabled" : 0,
													"hidden" : 0,
													"midpoints" : [ 365.5, 186.0, 567.5, 186.0 ],
													"source" : [ "obj-40", 0 ]
												}

											}
, 											{
												"patchline" : 												{
													"destination" : [ "obj-44", 0 ],
													"disabled" : 0,
													"hidden" : 0,
													"midpoints" : [ 365.5, 201.0, 403.5, 201.0 ],
													"source" : [ "obj-40", 0 ]
												}

											}
, 											{
												"patchline" : 												{
													"destination" : [ "obj-19", 0 ],
													"disabled" : 0,
													"hidden" : 0,
													"source" : [ "obj-44", 0 ]
												}

											}
, 											{
												"patchline" : 												{
													"destination" : [ "obj-9", 0 ],
													"disabled" : 0,
													"hidden" : 0,
													"source" : [ "obj-5", 0 ]
												}

											}
, 											{
												"patchline" : 												{
													"destination" : [ "obj-64", 0 ],
													"disabled" : 0,
													"hidden" : 0,
													"source" : [ "obj-69", 0 ]
												}

											}
, 											{
												"patchline" : 												{
													"destination" : [ "obj-10", 2 ],
													"disabled" : 0,
													"hidden" : 0,
													"source" : [ "obj-9", 0 ]
												}

											}
 ]
									}
,
									"patching_rect" : [ 385.25, 26.0, 128.0, 20.0 ],
									"saved_object_attributes" : 									{
										"default_fontface" : 0,
										"default_fontname" : "Arial",
										"default_fontsize" : 12.0,
										"description" : "",
										"digest" : "",
										"fontface" : 0,
										"fontname" : "Arial",
										"fontsize" : 12.0,
										"globalpatchername" : "",
										"tags" : ""
									}
,
									"text" : "patcher routingEngine"
								}

							}
, 							{
								"box" : 								{
									"comment" : "Incoming MIDI note",
									"id" : "obj-31",
									"maxclass" : "inlet",
									"numinlets" : 0,
									"numoutlets" : 1,
									"outlettype" : [ "" ],
									"patching_rect" : [ 15.428558, 24.0, 25.0, 25.0 ]
								}

							}
, 							{
								"box" : 								{
									"fontname" : "Arial",
									"fontsize" : 12.0,
									"id" : "obj-30",
									"maxclass" : "newobj",
									"numinlets" : 1,
									"numoutlets" : 0,
									"patching_rect" : [ 417.0, 433.0, 111.0, 20.0 ],
									"text" : "s thresholdRouting"
								}

							}
, 							{
								"box" : 								{
									"fontname" : "Arial",
									"fontsize" : 12.0,
									"format" : 4,
									"id" : "obj-29",
									"maxclass" : "number",
									"numinlets" : 1,
									"numoutlets" : 2,
									"outlettype" : [ "int", "bang" ],
									"parameter_enable" : 0,
									"patching_rect" : [ 15.428558, 55.0, 50.0, 20.0 ]
								}

							}
, 							{
								"box" : 								{
									"fontname" : "Arial",
									"fontsize" : 12.0,
									"id" : "obj-22",
									"maxclass" : "newobj",
									"numinlets" : 1,
									"numoutlets" : 0,
									"patching_rect" : [ 658.0, 433.0, 68.0, 20.0 ],
									"text" : "s noteSent"
								}

							}
, 							{
								"box" : 								{
									"fontname" : "Arial",
									"fontsize" : 12.0,
									"id" : "obj-28",
									"maxclass" : "newobj",
									"numinlets" : 1,
									"numoutlets" : 0,
									"patching_rect" : [ 199.0, 433.0, 72.0, 20.0 ],
									"text" : "s pitchSync"
								}

							}
, 							{
								"box" : 								{
									"comment" : "",
									"id" : "obj-26",
									"maxclass" : "outlet",
									"numinlets" : 1,
									"numoutlets" : 0,
									"patching_rect" : [ 556.0, 367.0, 25.0, 25.0 ]
								}

							}
, 							{
								"box" : 								{
									"comment" : "",
									"id" : "obj-25",
									"maxclass" : "outlet",
									"numinlets" : 1,
									"numoutlets" : 0,
									"patching_rect" : [ 417.0, 367.0, 25.0, 25.0 ]
								}

							}
, 							{
								"box" : 								{
									"comment" : "",
									"id" : "obj-24",
									"maxclass" : "outlet",
									"numinlets" : 1,
									"numoutlets" : 0,
									"patching_rect" : [ 278.0, 367.0, 25.0, 25.0 ]
								}

							}
, 							{
								"box" : 								{
									"comment" : "",
									"id" : "obj-23",
									"maxclass" : "outlet",
									"numinlets" : 1,
									"numoutlets" : 0,
									"patching_rect" : [ 139.0, 367.0, 25.0, 25.0 ]
								}

							}
, 							{
								"box" : 								{
									"fontname" : "Arial",
									"fontsize" : 12.0,
									"id" : "obj-21",
									"maxclass" : "newobj",
									"numinlets" : 0,
									"numoutlets" : 1,
									"outlettype" : [ "" ],
									"patching_rect" : [ 278.0, 128.0, 43.0, 20.0 ],
									"text" : "r velIn"
								}

							}
, 							{
								"box" : 								{
									"fontname" : "Arial",
									"fontsize" : 12.0,
									"id" : "obj-20",
									"maxclass" : "newobj",
									"numinlets" : 0,
									"numoutlets" : 1,
									"outlettype" : [ "" ],
									"patching_rect" : [ 321.285706, 128.0, 54.0, 20.0 ],
									"text" : "r chanIn"
								}

							}
, 							{
								"box" : 								{
									"fontname" : "Arial",
									"fontsize" : 12.0,
									"id" : "obj-19",
									"maxclass" : "newobj",
									"numinlets" : 0,
									"numoutlets" : 1,
									"outlettype" : [ "" ],
									"patching_rect" : [ 225.0, 128.0, 53.0, 20.0 ],
									"text" : "r pitchIn"
								}

							}
, 							{
								"box" : 								{
									"fontname" : "Arial",
									"fontsize" : 12.0,
									"id" : "obj-17",
									"maxclass" : "newobj",
									"numinlets" : 1,
									"numoutlets" : 1,
									"outlettype" : [ "" ],
									"patching_rect" : [ 573.0, 182.0, 79.0, 20.0 ],
									"text" : "loadmess 30"
								}

							}
, 							{
								"box" : 								{
									"fontname" : "Arial",
									"fontsize" : 12.0,
									"id" : "obj-18",
									"maxclass" : "number",
									"numinlets" : 1,
									"numoutlets" : 2,
									"outlettype" : [ "int", "bang" ],
									"parameter_enable" : 0,
									"patching_rect" : [ 573.0, 209.0, 50.0, 20.0 ]
								}

							}
, 							{
								"box" : 								{
									"fontname" : "Arial",
									"fontsize" : 12.0,
									"id" : "obj-15",
									"maxclass" : "newobj",
									"numinlets" : 1,
									"numoutlets" : 1,
									"outlettype" : [ "" ],
									"patching_rect" : [ 434.285706, 182.0, 79.0, 20.0 ],
									"text" : "loadmess 20"
								}

							}
, 							{
								"box" : 								{
									"fontname" : "Arial",
									"fontsize" : 12.0,
									"id" : "obj-16",
									"maxclass" : "number",
									"numinlets" : 1,
									"numoutlets" : 2,
									"outlettype" : [ "int", "bang" ],
									"parameter_enable" : 0,
									"patching_rect" : [ 434.285706, 209.0, 50.0, 20.0 ]
								}

							}
, 							{
								"box" : 								{
									"fontname" : "Arial",
									"fontsize" : 12.0,
									"id" : "obj-13",
									"maxclass" : "newobj",
									"numinlets" : 1,
									"numoutlets" : 1,
									"outlettype" : [ "" ],
									"patching_rect" : [ 295.428558, 182.0, 79.0, 20.0 ],
									"text" : "loadmess 10"
								}

							}
, 							{
								"box" : 								{
									"fontname" : "Arial",
									"fontsize" : 12.0,
									"id" : "obj-14",
									"maxclass" : "number",
									"numinlets" : 1,
									"numoutlets" : 2,
									"outlettype" : [ "int", "bang" ],
									"parameter_enable" : 0,
									"patching_rect" : [ 295.428558, 209.0, 50.0, 20.0 ]
								}

							}
, 							{
								"box" : 								{
									"fontname" : "Arial",
									"fontsize" : 12.0,
									"id" : "obj-12",
									"maxclass" : "newobj",
									"numinlets" : 1,
									"numoutlets" : 1,
									"outlettype" : [ "" ],
									"patching_rect" : [ 156.285721, 182.0, 72.0, 20.0 ],
									"text" : "loadmess 0"
								}

							}
, 							{
								"box" : 								{
									"fontname" : "Arial",
									"fontsize" : 12.0,
									"id" : "obj-11",
									"maxclass" : "number",
									"numinlets" : 1,
									"numoutlets" : 2,
									"outlettype" : [ "int", "bang" ],
									"parameter_enable" : 0,
									"patching_rect" : [ 156.285721, 209.0, 50.0, 20.0 ]
								}

							}
, 							{
								"box" : 								{
									"fontname" : "Arial",
									"fontsize" : 12.0,
									"id" : "obj-10",
									"maxclass" : "newobj",
									"numinlets" : 1,
									"numoutlets" : 1,
									"outlettype" : [ "" ],
									"patching_rect" : [ 590.285706, 243.0, 72.0, 20.0 ],
									"text" : "loadmess 4"
								}

							}
, 							{
								"box" : 								{
									"fontname" : "Arial",
									"fontsize" : 12.0,
									"id" : "obj-9",
									"maxclass" : "newobj",
									"numinlets" : 1,
									"numoutlets" : 1,
									"outlettype" : [ "" ],
									"patching_rect" : [ 451.285706, 243.0, 72.0, 20.0 ],
									"text" : "loadmess 3"
								}

							}
, 							{
								"box" : 								{
									"fontname" : "Arial",
									"fontsize" : 12.0,
									"id" : "obj-8",
									"maxclass" : "newobj",
									"numinlets" : 1,
									"numoutlets" : 1,
									"outlettype" : [ "" ],
									"patching_rect" : [ 312.285706, 243.0, 72.0, 20.0 ],
									"text" : "loadmess 2"
								}

							}
, 							{
								"box" : 								{
									"fontname" : "Arial",
									"fontsize" : 12.0,
									"id" : "obj-7",
									"maxclass" : "newobj",
									"numinlets" : 1,
									"numoutlets" : 1,
									"outlettype" : [ "" ],
									"patching_rect" : [ 173.285721, 243.0, 72.0, 20.0 ],
									"text" : "loadmess 1"
								}

							}
, 							{
								"box" : 								{
									"fontname" : "Arial",
									"fontsize" : 12.0,
									"id" : "obj-6",
									"maxclass" : "newobj",
									"numinlets" : 0,
									"numoutlets" : 1,
									"outlettype" : [ "" ],
									"patching_rect" : [ 139.0, 128.0, 87.0, 20.0 ],
									"text" : "r controlSignal"
								}

							}
, 							{
								"box" : 								{
									"fontname" : "Arial",
									"fontsize" : 12.0,
									"id" : "obj-5",
									"maxclass" : "newobj",
									"numinlets" : 8,
									"numoutlets" : 3,
									"outlettype" : [ "", "bang", "" ],
									"patching_rect" : [ 556.0, 311.0, 139.0, 20.0 ],
									"text" : "NoteOnGenerator note4"
								}

							}
, 							{
								"box" : 								{
									"fontname" : "Arial",
									"fontsize" : 12.0,
									"id" : "obj-4",
									"maxclass" : "newobj",
									"numinlets" : 8,
									"numoutlets" : 3,
									"outlettype" : [ "", "bang", "" ],
									"patching_rect" : [ 417.0, 311.0, 139.0, 20.0 ],
									"text" : "NoteOnGenerator note3"
								}

							}
, 							{
								"box" : 								{
									"fontname" : "Arial",
									"fontsize" : 12.0,
									"id" : "obj-3",
									"maxclass" : "newobj",
									"numinlets" : 8,
									"numoutlets" : 3,
									"outlettype" : [ "", "bang", "" ],
									"patching_rect" : [ 278.0, 311.0, 139.0, 20.0 ],
									"text" : "NoteOnGenerator note2"
								}

							}
, 							{
								"box" : 								{
									"fontname" : "Arial",
									"fontsize" : 12.0,
									"id" : "obj-2",
									"maxclass" : "newobj",
									"numinlets" : 8,
									"numoutlets" : 3,
									"outlettype" : [ "", "bang", "" ],
									"patching_rect" : [ 139.0, 311.0, 139.0, 20.0 ],
									"text" : "NoteOnGenerator note1"
								}

							}
, 							{
								"box" : 								{
									"fontname" : "Arial",
									"fontsize" : 12.0,
									"id" : "obj-1",
									"maxclass" : "newobj",
									"numinlets" : 1,
									"numoutlets" : 4,
									"outlettype" : [ "int", "int", "int", "int" ],
									"patching_rect" : [ 15.428558, 81.0, 136.0, 20.0 ],
									"text" : "KeyAndChordDetection"
								}

							}
 ],
						"lines" : [ 							{
								"patchline" : 								{
									"destination" : [ "obj-2", 3 ],
									"disabled" : 0,
									"hidden" : 0,
									"source" : [ "obj-1", 0 ]
								}

							}
, 							{
								"patchline" : 								{
									"destination" : [ "obj-3", 3 ],
									"disabled" : 0,
									"hidden" : 0,
									"source" : [ "obj-1", 1 ]
								}

							}
, 							{
								"patchline" : 								{
									"destination" : [ "obj-4", 3 ],
									"disabled" : 0,
									"hidden" : 0,
									"source" : [ "obj-1", 2 ]
								}

							}
, 							{
								"patchline" : 								{
									"destination" : [ "obj-5", 3 ],
									"disabled" : 0,
									"hidden" : 0,
									"source" : [ "obj-1", 3 ]
								}

							}
, 							{
								"patchline" : 								{
									"destination" : [ "obj-5", 2 ],
									"disabled" : 0,
									"hidden" : 0,
									"source" : [ "obj-10", 0 ]
								}

							}
, 							{
								"patchline" : 								{
									"destination" : [ "obj-2", 1 ],
									"disabled" : 0,
									"hidden" : 0,
									"source" : [ "obj-11", 0 ]
								}

							}
, 							{
								"patchline" : 								{
									"destination" : [ "obj-11", 0 ],
									"disabled" : 0,
									"hidden" : 0,
									"source" : [ "obj-12", 0 ]
								}

							}
, 							{
								"patchline" : 								{
									"destination" : [ "obj-14", 0 ],
									"disabled" : 0,
									"hidden" : 0,
									"source" : [ "obj-13", 0 ]
								}

							}
, 							{
								"patchline" : 								{
									"destination" : [ "obj-3", 1 ],
									"disabled" : 0,
									"hidden" : 0,
									"source" : [ "obj-14", 0 ]
								}

							}
, 							{
								"patchline" : 								{
									"destination" : [ "obj-16", 0 ],
									"disabled" : 0,
									"hidden" : 0,
									"source" : [ "obj-15", 0 ]
								}

							}
, 							{
								"patchline" : 								{
									"destination" : [ "obj-4", 1 ],
									"disabled" : 0,
									"hidden" : 0,
									"source" : [ "obj-16", 0 ]
								}

							}
, 							{
								"patchline" : 								{
									"destination" : [ "obj-18", 0 ],
									"disabled" : 0,
									"hidden" : 0,
									"source" : [ "obj-17", 0 ]
								}

							}
, 							{
								"patchline" : 								{
									"destination" : [ "obj-5", 1 ],
									"disabled" : 0,
									"hidden" : 0,
									"source" : [ "obj-18", 0 ]
								}

							}
, 							{
								"patchline" : 								{
									"color" : [ 0.000388, 0.162144, 0.8, 0.9 ],
									"destination" : [ "obj-2", 4 ],
									"disabled" : 0,
									"hidden" : 0,
									"midpoints" : [ 234.5, 168.0, 255.0, 168.0, 255.0, 297.0, 217.071426, 297.0 ],
									"source" : [ "obj-19", 0 ]
								}

							}
, 							{
								"patchline" : 								{
									"color" : [ 0.000388, 0.162144, 0.8, 0.9 ],
									"destination" : [ "obj-3", 4 ],
									"disabled" : 0,
									"hidden" : 0,
									"midpoints" : [ 234.5, 168.0, 282.0, 168.0, 282.0, 297.0, 356.071442, 297.0 ],
									"source" : [ "obj-19", 0 ]
								}

							}
, 							{
								"patchline" : 								{
									"color" : [ 0.000388, 0.162144, 0.8, 0.9 ],
									"destination" : [ "obj-4", 4 ],
									"disabled" : 0,
									"hidden" : 0,
									"midpoints" : [ 234.5, 168.0, 420.0, 168.0, 420.0, 297.0, 495.071442, 297.0 ],
									"source" : [ "obj-19", 0 ]
								}

							}
, 							{
								"patchline" : 								{
									"color" : [ 0.000388, 0.162144, 0.8, 0.9 ],
									"destination" : [ "obj-5", 4 ],
									"disabled" : 0,
									"hidden" : 0,
									"midpoints" : [ 234.5, 168.0, 558.0, 168.0, 558.0, 297.0, 634.071411, 297.0 ],
									"source" : [ "obj-19", 0 ]
								}

							}
, 							{
								"patchline" : 								{
									"destination" : [ "obj-22", 0 ],
									"disabled" : 0,
									"hidden" : 0,
									"source" : [ "obj-2", 0 ]
								}

							}
, 							{
								"patchline" : 								{
									"destination" : [ "obj-23", 0 ],
									"disabled" : 0,
									"hidden" : 0,
									"source" : [ "obj-2", 0 ]
								}

							}
, 							{
								"patchline" : 								{
									"destination" : [ "obj-28", 0 ],
									"disabled" : 0,
									"hidden" : 0,
									"source" : [ "obj-2", 1 ]
								}

							}
, 							{
								"patchline" : 								{
									"destination" : [ "obj-30", 0 ],
									"disabled" : 0,
									"hidden" : 0,
									"source" : [ "obj-2", 2 ]
								}

							}
, 							{
								"patchline" : 								{
									"color" : [ 0.8, 0.053836, 0.0, 1.0 ],
									"destination" : [ "obj-2", 6 ],
									"disabled" : 0,
									"hidden" : 0,
									"midpoints" : [ 330.785706, 168.0, 255.0, 168.0, 255.0, 297.0, 251.357147, 297.0 ],
									"source" : [ "obj-20", 0 ]
								}

							}
, 							{
								"patchline" : 								{
									"color" : [ 0.8, 0.053836, 0.0, 1.0 ],
									"destination" : [ "obj-3", 6 ],
									"disabled" : 0,
									"hidden" : 0,
									"midpoints" : [ 330.785706, 168.0, 396.0, 168.0, 396.0, 297.0, 390.357147, 297.0 ],
									"source" : [ "obj-20", 0 ]
								}

							}
, 							{
								"patchline" : 								{
									"color" : [ 0.8, 0.053836, 0.0, 1.0 ],
									"destination" : [ "obj-4", 6 ],
									"disabled" : 0,
									"hidden" : 0,
									"midpoints" : [ 330.785706, 168.0, 420.0, 168.0, 420.0, 297.0, 529.357117, 297.0 ],
									"source" : [ "obj-20", 0 ]
								}

							}
, 							{
								"patchline" : 								{
									"color" : [ 0.8, 0.053836, 0.0, 1.0 ],
									"destination" : [ "obj-5", 6 ],
									"disabled" : 0,
									"hidden" : 0,
									"midpoints" : [ 330.785706, 168.0, 558.0, 168.0, 558.0, 297.0, 668.357117, 297.0 ],
									"source" : [ "obj-20", 0 ]
								}

							}
, 							{
								"patchline" : 								{
									"color" : [ 0.0257, 0.8, 0.0, 0.9 ],
									"destination" : [ "obj-2", 5 ],
									"disabled" : 0,
									"hidden" : 0,
									"midpoints" : [ 287.5, 168.0, 255.0, 168.0, 255.0, 297.0, 234.214279, 297.0 ],
									"source" : [ "obj-21", 0 ]
								}

							}
, 							{
								"patchline" : 								{
									"color" : [ 0.0257, 0.8, 0.0, 0.9 ],
									"destination" : [ "obj-3", 5 ],
									"disabled" : 0,
									"hidden" : 0,
									"midpoints" : [ 287.5, 168.0, 396.0, 168.0, 396.0, 297.0, 373.214294, 297.0 ],
									"source" : [ "obj-21", 0 ]
								}

							}
, 							{
								"patchline" : 								{
									"color" : [ 0.0257, 0.8, 0.0, 0.9 ],
									"destination" : [ "obj-4", 5 ],
									"disabled" : 0,
									"hidden" : 0,
									"midpoints" : [ 287.5, 168.0, 420.0, 168.0, 420.0, 297.0, 512.214294, 297.0 ],
									"source" : [ "obj-21", 0 ]
								}

							}
, 							{
								"patchline" : 								{
									"color" : [ 0.0257, 0.8, 0.0, 0.9 ],
									"destination" : [ "obj-5", 5 ],
									"disabled" : 0,
									"hidden" : 0,
									"midpoints" : [ 287.5, 168.0, 558.0, 168.0, 558.0, 297.0, 651.214294, 297.0 ],
									"source" : [ "obj-21", 0 ]
								}

							}
, 							{
								"patchline" : 								{
									"destination" : [ "obj-1", 0 ],
									"disabled" : 0,
									"hidden" : 0,
									"source" : [ "obj-29", 0 ]
								}

							}
, 							{
								"patchline" : 								{
									"destination" : [ "obj-22", 0 ],
									"disabled" : 0,
									"hidden" : 0,
									"source" : [ "obj-3", 0 ]
								}

							}
, 							{
								"patchline" : 								{
									"destination" : [ "obj-24", 0 ],
									"disabled" : 0,
									"hidden" : 0,
									"source" : [ "obj-3", 0 ]
								}

							}
, 							{
								"patchline" : 								{
									"destination" : [ "obj-28", 0 ],
									"disabled" : 0,
									"hidden" : 0,
									"source" : [ "obj-3", 1 ]
								}

							}
, 							{
								"patchline" : 								{
									"destination" : [ "obj-30", 0 ],
									"disabled" : 0,
									"hidden" : 0,
									"source" : [ "obj-3", 2 ]
								}

							}
, 							{
								"patchline" : 								{
									"destination" : [ "obj-29", 0 ],
									"disabled" : 0,
									"hidden" : 0,
									"source" : [ "obj-31", 0 ]
								}

							}
, 							{
								"patchline" : 								{
									"destination" : [ "obj-2", 7 ],
									"disabled" : 0,
									"hidden" : 0,
									"source" : [ "obj-33", 0 ]
								}

							}
, 							{
								"patchline" : 								{
									"destination" : [ "obj-3", 7 ],
									"disabled" : 0,
									"hidden" : 0,
									"source" : [ "obj-34", 0 ]
								}

							}
, 							{
								"patchline" : 								{
									"destination" : [ "obj-4", 7 ],
									"disabled" : 0,
									"hidden" : 0,
									"source" : [ "obj-35", 0 ]
								}

							}
, 							{
								"patchline" : 								{
									"destination" : [ "obj-5", 7 ],
									"disabled" : 0,
									"hidden" : 0,
									"source" : [ "obj-36", 0 ]
								}

							}
, 							{
								"patchline" : 								{
									"destination" : [ "obj-22", 0 ],
									"disabled" : 0,
									"hidden" : 0,
									"source" : [ "obj-4", 0 ]
								}

							}
, 							{
								"patchline" : 								{
									"destination" : [ "obj-25", 0 ],
									"disabled" : 0,
									"hidden" : 0,
									"source" : [ "obj-4", 0 ]
								}

							}
, 							{
								"patchline" : 								{
									"destination" : [ "obj-28", 0 ],
									"disabled" : 0,
									"hidden" : 0,
									"source" : [ "obj-4", 1 ]
								}

							}
, 							{
								"patchline" : 								{
									"destination" : [ "obj-30", 0 ],
									"disabled" : 0,
									"hidden" : 0,
									"source" : [ "obj-4", 2 ]
								}

							}
, 							{
								"patchline" : 								{
									"destination" : [ "obj-22", 0 ],
									"disabled" : 0,
									"hidden" : 0,
									"source" : [ "obj-5", 0 ]
								}

							}
, 							{
								"patchline" : 								{
									"destination" : [ "obj-26", 0 ],
									"disabled" : 0,
									"hidden" : 0,
									"source" : [ "obj-5", 0 ]
								}

							}
, 							{
								"patchline" : 								{
									"destination" : [ "obj-28", 0 ],
									"disabled" : 0,
									"hidden" : 0,
									"source" : [ "obj-5", 1 ]
								}

							}
, 							{
								"patchline" : 								{
									"destination" : [ "obj-30", 0 ],
									"disabled" : 0,
									"hidden" : 0,
									"source" : [ "obj-5", 2 ]
								}

							}
, 							{
								"patchline" : 								{
									"destination" : [ "obj-2", 0 ],
									"disabled" : 0,
									"hidden" : 0,
									"midpoints" : [ 148.5, 168.0, 148.0, 168.0, 148.0, 297.0, 148.5, 297.0 ],
									"source" : [ "obj-6", 0 ]
								}

							}
, 							{
								"patchline" : 								{
									"destination" : [ "obj-3", 0 ],
									"disabled" : 0,
									"hidden" : 0,
									"midpoints" : [ 148.5, 168.0, 282.0, 168.0, 282.0, 306.0, 287.5, 306.0 ],
									"source" : [ "obj-6", 0 ]
								}

							}
, 							{
								"patchline" : 								{
									"destination" : [ "obj-4", 0 ],
									"disabled" : 0,
									"hidden" : 0,
									"midpoints" : [ 148.5, 168.0, 420.0, 168.0, 420.0, 297.0, 426.5, 297.0 ],
									"source" : [ "obj-6", 0 ]
								}

							}
, 							{
								"patchline" : 								{
									"destination" : [ "obj-5", 0 ],
									"disabled" : 0,
									"hidden" : 0,
									"midpoints" : [ 148.5, 168.0, 558.0, 168.0, 558.0, 297.0, 565.5, 297.0 ],
									"source" : [ "obj-6", 0 ]
								}

							}
, 							{
								"patchline" : 								{
									"destination" : [ "obj-2", 2 ],
									"disabled" : 0,
									"hidden" : 0,
									"source" : [ "obj-7", 0 ]
								}

							}
, 							{
								"patchline" : 								{
									"destination" : [ "obj-3", 2 ],
									"disabled" : 0,
									"hidden" : 0,
									"source" : [ "obj-8", 0 ]
								}

							}
, 							{
								"patchline" : 								{
									"destination" : [ "obj-4", 2 ],
									"disabled" : 0,
									"hidden" : 0,
									"source" : [ "obj-9", 0 ]
								}

							}
 ]
					}
,
					"patching_rect" : [ 260.0, 167.0, 139.0, 20.0 ],
					"saved_object_attributes" : 					{
						"default_fontface" : 0,
						"default_fontname" : "Arial",
						"default_fontsize" : 12.0,
						"description" : "",
						"digest" : "",
						"fontface" : 0,
						"fontname" : "Arial",
						"fontsize" : 12.0,
						"globalpatchername" : "",
						"tags" : ""
					}
,
					"text" : "patcher NoteGeneration"
				}

			}
 ],
		"lines" : [  ],
		"dependency_cache" : [ 			{
				"name" : "KeyAndChordDetection.maxpat",
				"bootpath" : "/Users/davidsmith/Documents/Max/Super Duper Advanced Arpeggiator",
				"patcherrelativepath" : ".",
				"type" : "JSON",
				"implicit" : 1
			}
, 			{
				"name" : "NoteOnGenerator.maxpat",
				"bootpath" : "/Users/davidsmith/Documents/Max/Super Duper Advanced Arpeggiator",
				"patcherrelativepath" : ".",
				"type" : "JSON",
				"implicit" : 1
			}
, 			{
				"name" : "ChangeDetector.maxpat",
				"bootpath" : "/Users/davidsmith/Documents/Max/Super Duper Advanced Arpeggiator",
				"patcherrelativepath" : ".",
				"type" : "JSON",
				"implicit" : 1
			}
, 			{
				"name" : "modal_change.mxo",
				"type" : "iLaX"
			}
, 			{
				"name" : "modal_triad.mxo",
				"type" : "iLaX"
			}
 ]
	}

}
